<svg width="47" height="47" viewBox="0 0 47 47" fill="none" xmlns="http://www.w3.org/2000/svg">
<path d="M31.9395 24.6895H24.6895V31.9395H22.3105V24.6895H15.0605V22.3105H22.3105V15.0605H24.6895V22.3105H31.9395V24.6895Z" fill="black"/>
<path d="M23.5 46C11.0736 46 1 35.9264 1 23.5H-1C-1 37.031 9.96902 48 23.5 48V46ZM46 23.5C46 35.9264 35.9264 46 23.5 46V48C37.031 48 48 37.031 48 23.5H46ZM23.5 1C35.9264 1 46 11.0736 46 23.5H48C48 9.96902 37.031 -1 23.5 -1V1ZM23.5 -1C9.96902 -1 -1 9.96902 -1 23.5H1C1 11.0736 11.0736 1 23.5 1V-1Z" fill="black"/>
</svg>
