<svg width="1252" height="1277" xmlns="http://www.w3.org/2000/svg" xmlns:xlink="http://www.w3.org/1999/xlink" overflow="hidden"><defs><clipPath id="clip0"><rect x="2828" y="978" width="1252" height="1277"/></clipPath></defs><g clip-path="url(#clip0)" transform="translate(-2828 -978)"><path d="M3303.04 985 3604.62 985 3704.74 1185.4 3955.07 1185.4 4069.3 1414.06 3970.95 1610.93 4072 1813.21 3957.77 2041.87 3710.3 2041.87 3607.32 2248 3305.74 2248 3204.54 2045.43 2950.24 2045.43 2836 1816.77 2935.03 1618.56 2838.36 1425.07 2952.6 1196.41 3197.43 1196.41Z" stroke="#FCAD1C" stroke-width="13.75" stroke-miterlimit="8" fill="#FFFFFF" fill-rule="evenodd"/><path d="M3264 1209 3346.5 1044 3564.5 1044 3647 1209 3564.5 1374 3346.5 1374Z" fill="#FCAD1C" fill-rule="evenodd"/><path d="M3264 2017 3346.5 1852 3564.5 1852 3647 2017 3564.5 2182 3346.5 2182Z" fill="#FCAD1C" fill-rule="evenodd"/><path d="M3616 1809 3698.5 1644 3915.5 1644 3998 1809 3915.5 1974 3698.5 1974Z" fill="#FCAD1C" fill-rule="evenodd"/><path d="M2912 1809 2994.5 1644 3212.5 1644 3295 1809 3212.5 1974 2994.5 1974Z" fill="#FCAD1C" fill-rule="evenodd"/><path d="M3616 1417 3698.5 1252 3915.5 1252 3998 1417 3915.5 1582 3698.5 1582Z" fill="#FCAD1C" fill-rule="evenodd"/><path d="M2912 1417 2994.5 1252 3212.5 1252 3295 1417 3212.5 1582 2994.5 1582Z" fill="#FCAD1C" fill-rule="evenodd"/><path d="M3266 1616 3348.5 1451 3566.5 1451 3649 1616 3566.5 1781 3348.5 1781Z" fill="#F0D128" fill-rule="evenodd"/><path d="M3547 1781 3457.87 1781 3383 1616 3457.87 1451 3547 1451 3472.13 1616Z" fill="#231F20" fill-rule="evenodd"/><path d="M3553 1616.5 3601.5 1522 3650 1616.5 3601.5 1711Z" fill="#231F20" fill-rule="evenodd"/><path d="M3584 1616.5 3635.5 1589 3687 1616.5 3635.5 1644Z" fill="#231F20" fill-rule="evenodd"/></g></svg>