<svg width="47" height="47" viewBox="0 0 47 47" fill="none" xmlns="http://www.w3.org/2000/svg">
<path d="M20.8571 29.6429C20.8571 30.075 20.5036 30.4286 20.0714 30.4286C19.6393 30.4286 19.2857 30.075 19.2857 29.6429V19.4286C19.2857 18.9964 19.6393 18.6429 20.0714 18.6429C20.5036 18.6429 20.8571 18.9964 20.8571 19.4286V29.6429ZM24.7857 29.6429C24.7857 30.075 24.4321 30.4286 24 30.4286C23.5679 30.4286 23.2143 30.075 23.2143 29.6429V19.4286C23.2143 18.9964 23.5679 18.6429 24 18.6429C24.4321 18.6429 24.7857 18.9964 24.7857 19.4286V29.6429ZM28.7143 29.6429C28.7143 30.075 28.3607 30.4286 27.9286 30.4286C27.4964 30.4286 27.1429 30.075 27.1429 29.6429V19.4286C27.1429 18.9964 27.4964 18.6429 27.9286 18.6429C28.3607 18.6429 28.7143 18.9964 28.7143 19.4286V29.6429ZM28.5915 11.2247L30.3938 13.9286H33.8214C34.4746 13.9286 35 14.4565 35 15.1071C35 15.7603 34.4746 16.2857 33.8214 16.2857H33.4286V31.2143C33.4286 33.3848 31.6705 35.1429 29.5 35.1429H18.5C16.3304 35.1429 14.5714 33.3848 14.5714 31.2143V16.2857H14.1786C13.5279 16.2857 13 15.7603 13 15.1071C13 14.4565 13.5279 13.9286 14.1786 13.9286H17.6072L19.4085 11.2247C19.9192 10.4595 20.7786 10 21.6969 10H26.3031C27.2214 10 28.0808 10.4595 28.5915 11.2247ZM20.4397 13.9286H27.5603L26.6272 12.532C26.5536 12.4229 26.4308 12.3571 26.3031 12.3571H21.6969C21.5692 12.3571 21.4022 12.4229 21.3728 12.532L20.4397 13.9286ZM16.9286 31.2143C16.9286 32.0835 17.6323 32.7857 18.5 32.7857H29.5C30.3692 32.7857 31.0714 32.0835 31.0714 31.2143V16.2857H16.9286V31.2143Z" fill="#F24E1E"/>
<rect x="0.5" y="0.5" width="46" height="46" rx="23" stroke="#FF0000"/>
</svg>
