<svg width="1920" height="1080" viewBox="0 0 1920 1080" fill="none" xmlns="http://www.w3.org/2000/svg">
<g clip-path="url(#clip0_28_522)">
<path d="M0 0H1920V1080H0V0Z" fill="#76F7FF"/>
<path d="M852.558 855.054H970.273C970.273 855.054 967.664 908.938 963.325 940.888C958.829 973.995 966.595 1021 966.595 1021H852.558C852.558 1021 864.002 972.174 864.002 940.888C864.002 907.368 852.558 855.054 852.558 855.054Z" fill="#836B48"/>
<path d="M752.799 743.116L1065.51 722.307L1165.65 913.911H658L752.799 743.116Z" fill="#528757"/>
<path d="M796.3 570.358L1065.51 608.051L1165.65 715.239L710.94 747.043L796.3 570.358Z" fill="#659D6B"/>
<path d="M812.716 465.918L969.483 445.501L1117.22 615.904L760.184 565.261L812.716 465.918Z" fill="#74B07B"/>
<path d="M897.927 291L1000.52 441.414L771.628 471.661L897.927 291Z" fill="#7EC686"/>
<path d="M1403.56 792.054H1521.27C1521.27 792.054 1518.66 845.938 1514.32 877.888C1509.83 910.995 1517.59 958 1517.59 958H1403.56C1403.56 958 1415 909.174 1415 877.888C1415 844.368 1403.56 792.054 1403.56 792.054Z" fill="#836B48"/>
<path d="M1303.8 680.116L1616.51 659.307L1716.65 850.911H1209L1303.8 680.116Z" fill="#528757"/>
<path d="M1347.3 507.358L1616.51 545.051L1716.65 652.239L1261.94 684.043L1347.3 507.358Z" fill="#659D6B"/>
<path d="M1363.72 402.918L1520.48 382.501L1668.22 552.904L1311.18 502.261L1363.72 402.918Z" fill="#74B07B"/>
<path d="M1448.93 228L1551.52 378.414L1322.63 408.661L1448.93 228Z" fill="#7EC686"/>
<path d="M2317 1114.79C2316.97 1052.61 2281.51 991.055 2212.66 933.643C2143.81 876.231 2042.9 824.085 1915.71 780.183C1788.52 736.28 1637.53 701.481 1471.36 677.771C1305.19 654.062 1127.1 641.907 947.255 642C767.409 642.093 589.331 654.433 423.188 678.315C257.045 702.196 106.091 737.152 -21.0561 781.187C-148.203 825.221 -249.053 877.472 -317.847 934.955C-386.641 992.439 -422.032 1054.03 -422 1116.21L947.5 1115.5L2317 1114.79Z" fill="url(#paint0_linear_28_522)"/>
<path d="M67.5576 840.054H185.273C185.273 840.054 182.664 893.938 178.325 925.888C173.829 958.995 181.595 1006 181.595 1006H67.5576C67.5576 1006 79.0022 957.174 79.0022 925.888C79.0022 892.368 67.5576 840.054 67.5576 840.054Z" fill="#836B48"/>
<path d="M-32.2007 728.116L280.514 707.307L380.648 898.911H-127L-32.2007 728.116Z" fill="#528757"/>
<path d="M11.3003 555.358L280.514 593.051L380.648 700.239L-74.0601 732.043L11.3003 555.358Z" fill="#659D6B"/>
<path d="M27.7158 450.918L184.483 430.501L332.223 600.904L-24.8164 550.261L27.7158 450.918Z" fill="#74B07B"/>
<path d="M112.927 276L215.52 426.414L-13.3716 456.661L112.927 276Z" fill="#7EC686"/>
<path d="M1742.42 883.923H1885.56C1861.59 962.192 1867.23 1012.26 1885.56 1085.59H1730.44C1730.44 1085.59 1748.06 1036.23 1748.06 993.218C1748.06 951.408 1742.42 883.923 1742.42 883.923Z" fill="#9F6D23"/>
<path d="M1777.86 627.229C1791.63 604.688 1824.37 604.688 1838.14 627.229L2013.32 913.955C2027.71 937.491 2010.77 967.691 1983.18 967.691H1632.82C1605.23 967.691 1588.29 937.491 1602.68 913.955L1777.86 627.229Z" fill="#2E9F3F"/>
<path d="M1781.05 512.473C1793.49 492.105 1823.07 492.105 1835.52 512.473L1993.81 771.554C2006.8 792.821 1991.5 820.109 1966.57 820.109H1649.99C1625.06 820.109 1609.76 792.821 1622.75 771.554L1781.05 512.473Z" fill="#3ABB4E"/>
<path d="M1784.97 416.745C1795.49 399.522 1820.51 399.522 1831.03 416.745L1964.89 635.833C1975.88 653.818 1962.93 676.894 1941.86 676.894H1674.14C1653.07 676.894 1640.12 653.818 1651.11 635.833L1784.97 416.745Z" fill="#55CD68"/>
<path d="M1791.15 344.575C1798.85 331.975 1817.15 331.975 1824.85 344.575L1922.77 504.847C1930.81 518.004 1921.34 534.885 1905.92 534.885H1710.08C1694.66 534.885 1685.19 518.004 1693.23 504.847L1791.15 344.575Z" fill="#5DE372"/>
<path d="M915.423 1027.92H1058.56C1034.59 1106.19 1040.23 1156.26 1058.56 1229.59H903.436C903.436 1229.59 921.064 1180.23 921.064 1137.22C921.064 1095.41 915.423 1027.92 915.423 1027.92Z" fill="#9F6D23"/>
<path d="M950.859 771.229C964.632 748.688 997.368 748.688 1011.14 771.229L1186.32 1057.95C1200.71 1081.49 1183.77 1111.69 1156.18 1111.69H805.816C778.234 1111.69 761.295 1081.49 775.675 1057.95L950.859 771.229Z" fill="#2E9F3F"/>
<path d="M954.046 656.473C966.49 636.105 996.071 636.105 1008.52 656.473L1166.81 915.554C1179.8 936.821 1164.5 964.109 1139.57 964.109H822.987C798.064 964.109 782.758 936.821 795.752 915.554L954.046 656.473Z" fill="#3ABB4E"/>
<path d="M957.97 560.745C968.493 543.522 993.507 543.522 1004.03 560.745L1137.89 779.833C1148.88 797.818 1135.93 820.894 1114.86 820.894H847.141C826.066 820.894 813.123 797.818 824.111 779.833L957.97 560.745Z" fill="#55CD68"/>
<path d="M964.152 488.575C971.85 475.975 990.149 475.975 997.848 488.575L1095.77 648.847C1103.81 662.004 1094.34 678.885 1078.92 678.885H883.076C867.659 678.885 858.19 662.004 866.229 648.847L964.152 488.575Z" fill="#5DE372"/>
<path d="M470.423 791.923H613.564C589.59 870.192 595.231 920.256 613.564 993.59H458.436C458.436 993.59 476.064 944.231 476.064 901.218C476.064 859.408 470.423 791.923 470.423 791.923Z" fill="#9F6D23"/>
<path d="M505.859 535.229C519.632 512.688 552.368 512.688 566.141 535.229L741.325 821.955C755.705 845.491 738.766 875.691 711.184 875.691H360.816C333.234 875.691 316.295 845.491 330.675 821.955L505.859 535.229Z" fill="#2E9F3F"/>
<path d="M509.046 420.473C521.49 400.105 551.071 400.105 563.515 420.473L721.809 679.554C734.803 700.821 719.497 728.109 694.575 728.109H377.987C353.064 728.109 337.758 700.821 350.752 679.554L509.046 420.473Z" fill="#3ABB4E"/>
<path d="M512.97 324.745C523.493 307.522 548.507 307.522 559.031 324.745L692.889 543.833C703.877 561.818 690.934 584.894 669.859 584.894H402.141C381.066 584.894 368.123 561.818 379.111 543.833L512.97 324.745Z" fill="#55CD68"/>
<path d="M519.152 252.575C526.85 239.975 545.149 239.975 552.848 252.575L650.771 412.847C658.81 426.004 649.341 442.885 633.923 442.885H438.076C422.659 442.885 413.19 426.004 421.229 412.847L519.152 252.575Z" fill="#5DE372"/>
<path d="M264.423 1028.92H407.564C383.59 1107.19 389.231 1157.26 407.564 1230.59H252.436C252.436 1230.59 270.064 1181.23 270.064 1138.22C270.064 1096.41 264.423 1028.92 264.423 1028.92Z" fill="#9F6D23"/>
<path d="M299.859 772.229C313.632 749.688 346.368 749.688 360.141 772.229L535.325 1058.95C549.705 1082.49 532.766 1112.69 505.184 1112.69H154.816C127.234 1112.69 110.295 1082.49 124.675 1058.95L299.859 772.229Z" fill="#2E9F3F"/>
<path d="M303.046 657.473C315.49 637.105 345.071 637.105 357.515 657.473L515.809 916.554C528.803 937.821 513.497 965.109 488.575 965.109H171.987C147.064 965.109 131.758 937.821 144.752 916.554L303.046 657.473Z" fill="#3ABB4E"/>
<path d="M306.969 561.745C317.493 544.522 342.507 544.522 353.03 561.745L486.889 780.833C497.877 798.818 484.934 821.894 463.859 821.894H196.141C175.066 821.894 162.122 798.818 173.11 780.833L306.969 561.745Z" fill="#55CD68"/>
<path d="M313.152 489.575C320.851 476.975 339.15 476.975 346.848 489.575L444.772 649.847C452.81 663.004 443.341 679.885 427.924 679.885H232.077C216.659 679.885 207.191 663.004 215.229 649.847L313.152 489.575Z" fill="#5DE372"/>
<path d="M646.558 1039.05H764.273C764.273 1039.05 761.664 1092.94 757.325 1124.89C752.829 1158 760.595 1205 760.595 1205H646.558C646.558 1205 658.002 1156.17 658.002 1124.89C658.002 1091.37 646.558 1039.05 646.558 1039.05Z" fill="#836B48"/>
<path d="M546.799 927.116L859.514 906.307L959.648 1097.91H452L546.799 927.116Z" fill="#528757"/>
<path d="M590.3 754.358L859.514 792.051L959.648 899.239L504.94 931.043L590.3 754.358Z" fill="#659D6B"/>
<path d="M606.716 649.918L763.483 629.501L911.223 799.904L554.184 749.261L606.716 649.918Z" fill="#74B07B"/>
<path d="M691.927 475L794.52 625.414L565.628 655.661L691.927 475Z" fill="#7EC686"/>
<path d="M-31.2007 1186.12L281.514 1165.31L381.648 1356.91H-126L-31.2007 1186.12Z" fill="#528757"/>
<path d="M12.3003 1013.36L281.514 1051.05L381.648 1158.24L-73.0601 1190.04L12.3003 1013.36Z" fill="#659D6B"/>
<path d="M28.7158 908.918L185.483 888.501L333.223 1058.9L-23.8164 1008.26L28.7158 908.918Z" fill="#74B07B"/>
<path d="M113.927 734L216.52 884.414L-12.3716 914.661L113.927 734Z" fill="#7EC686"/>
<path d="M1142.56 973.054H1260.27C1260.27 973.054 1257.66 1026.94 1253.32 1058.89C1248.83 1092 1256.59 1139 1256.59 1139H1142.56C1142.56 1139 1154 1090.17 1154 1058.89C1154 1025.37 1142.56 973.054 1142.56 973.054Z" fill="#836B48"/>
<path d="M1042.8 861.116L1355.51 840.307L1455.65 1031.91H948L1042.8 861.116Z" fill="#528757"/>
<path d="M1086.3 688.358L1355.51 726.051L1455.65 833.239L1000.94 865.043L1086.3 688.358Z" fill="#659D6B"/>
<path d="M1102.72 583.918L1259.48 563.501L1407.22 733.904L1050.18 683.261L1102.72 583.918Z" fill="#74B07B"/>
<path d="M1187.93 409L1290.52 559.414L1061.63 589.661L1187.93 409Z" fill="#7EC686"/>
<path d="M1419.42 997.923H1562.56C1538.59 1076.19 1544.23 1126.26 1562.56 1199.59H1407.44C1407.44 1199.59 1425.06 1150.23 1425.06 1107.22C1425.06 1065.41 1419.42 997.923 1419.42 997.923Z" fill="#9F6D23"/>
<path d="M1454.86 741.229C1468.63 718.688 1501.37 718.688 1515.14 741.229L1690.32 1027.95C1704.71 1051.49 1687.77 1081.69 1660.18 1081.69H1309.82C1282.23 1081.69 1265.29 1051.49 1279.68 1027.95L1454.86 741.229Z" fill="#2E9F3F"/>
<path d="M1458.05 626.473C1470.49 606.105 1500.07 606.105 1512.52 626.473L1670.81 885.554C1683.8 906.821 1668.5 934.109 1643.57 934.109H1326.99C1302.06 934.109 1286.76 906.821 1299.75 885.554L1458.05 626.473Z" fill="#3ABB4E"/>
<path d="M1461.97 530.745C1472.49 513.522 1497.51 513.522 1508.03 530.745L1641.89 749.833C1652.88 767.818 1639.93 790.894 1618.86 790.894H1351.14C1330.07 790.894 1317.12 767.818 1328.11 749.833L1461.97 530.745Z" fill="#55CD68"/>
<path d="M1468.15 458.575C1475.85 445.975 1494.15 445.975 1501.85 458.575L1599.77 618.847C1607.81 632.004 1598.34 648.885 1582.92 648.885H1387.08C1371.66 648.885 1362.19 632.004 1370.23 618.847L1468.15 458.575Z" fill="#5DE372"/>
<path d="M1600.8 1159.12L1913.51 1138.31L2013.65 1329.91H1506L1600.8 1159.12Z" fill="#528757"/>
<path d="M1644.3 986.358L1913.51 1024.05L2013.65 1131.24L1558.94 1163.04L1644.3 986.358Z" fill="#659D6B"/>
<path d="M1660.72 881.918L1817.48 861.501L1965.22 1031.9L1608.18 981.261L1660.72 881.918Z" fill="#74B07B"/>
<path d="M1745.93 707L1848.52 857.414L1619.63 887.661L1745.93 707Z" fill="#7EC686"/>
</g>
<defs>
<linearGradient id="paint0_linear_28_522" x1="947.255" y1="642" x2="947.746" y2="1589" gradientUnits="userSpaceOnUse">
<stop stop-color="#A86516"/>
<stop offset="1" stop-color="#251400" stop-opacity="0"/>
</linearGradient>
<clipPath id="clip0_28_522">
<path d="M0 0H1920V1080H0V0Z" fill="white"/>
</clipPath>
</defs>
</svg>
