<svg width="31" height="31" viewBox="0 0 31 31" fill="none" xmlns="http://www.w3.org/2000/svg">
<path d="M10.6684 24.6708C12.4555 25.6114 14.1485 26.0817 15.7476 26.0817C17.3466 26.0817 19.0161 25.6114 20.7562 24.6708C22.5434 23.7302 23.8837 22.578 24.7773 21.2141C24.7302 19.8973 23.6721 18.7921 21.6028 17.8985C19.5334 17.0049 17.5817 16.5582 15.7476 16.5582C13.9134 16.5582 11.9617 17.0049 9.89236 17.8985C7.82305 18.745 6.76489 19.8502 6.71786 21.2141C7.61142 22.578 8.92825 23.7302 10.6684 24.6708ZM18.9221 6.04702C18.0285 5.15346 16.9703 4.70668 15.7476 4.70668C14.5248 4.70668 13.4666 5.15346 12.5731 6.04702C11.6795 6.94059 11.2327 7.99876 11.2327 9.22153C11.2327 10.4443 11.6795 11.5025 12.5731 12.396C13.4666 13.2896 14.5248 13.7364 15.7476 13.7364C16.9703 13.7364 18.0285 13.2896 18.9221 12.396C19.8156 11.5025 20.2624 10.4443 20.2624 9.22153C20.2624 7.99876 19.8156 6.94059 18.9221 6.04702ZM5.09533 4.63613C8.0582 1.67326 11.6089 0.191825 15.7476 0.191825C19.8862 0.191825 23.4134 1.67326 26.3292 4.63613C29.2921 7.55197 30.7735 11.0792 30.7735 15.2178C30.7735 19.3564 29.2921 22.9072 26.3292 25.87C23.4134 28.7859 19.8862 30.2438 15.7476 30.2438C11.6089 30.2438 8.0582 28.7859 5.09533 25.87C2.17949 22.9072 0.721568 19.3564 0.721568 15.2178C0.721568 11.0792 2.17949 7.55197 5.09533 4.63613Z" fill="#777373"/>
</svg>
