<svg width="28" height="32" viewBox="0 0 28 32" fill="none" xmlns="http://www.w3.org/2000/svg">
<path d="M19.7438 16.8589V13.8255H15.229V9.31064H12.2661V13.8255H7.75127V16.8589H12.2661V21.3738H15.229V16.8589H19.7438ZM24.1176 22.573L27.2921 25.7475V27.37H0.203004V25.7475L3.37751 22.573V13.8255C3.37751 11.5681 4.1535 9.45173 5.70548 7.47648C7.25746 5.50123 9.13865 4.25495 11.349 3.73762V2.67945C11.349 2.02104 11.5842 1.45668 12.0545 0.986382C12.5248 0.516085 13.0891 0.280936 13.7476 0.280936C14.406 0.280936 14.9703 0.516085 15.4406 0.986382C15.9109 1.45668 16.1461 2.02104 16.1461 2.67945V3.73762C18.4505 4.25495 20.3552 5.47772 21.8602 7.40594C23.3651 9.28712 24.1176 11.427 24.1176 13.8255V22.573ZM10.7847 28.8515H16.7104C16.7104 29.651 16.4047 30.3564 15.7934 30.9678C15.229 31.5792 14.5471 31.8849 13.7476 31.8849C12.9481 31.8849 12.2426 31.5792 11.6312 30.9678C11.0669 30.3564 10.7847 29.651 10.7847 28.8515Z" fill="#777373"/>
</svg>
