<svg width="19" height="21" viewBox="0 0 19 21" fill="none" xmlns="http://www.w3.org/2000/svg">
<path d="M16.3017 18.949V7.74925H2.09947V18.949H16.3017ZM16.3017 2.64978C16.8419 2.64978 17.3184 2.8563 17.7315 3.26934C18.1445 3.68239 18.351 4.15897 18.351 4.6991V18.949C18.351 19.4892 18.1445 19.9657 17.7315 20.3788C17.3184 20.76 16.8419 20.9507 16.3017 20.9507H2.09947C1.52757 20.9507 1.03509 20.76 0.622053 20.3788C0.240784 19.9975 0.0501497 19.5209 0.0501497 18.949V4.6991C0.0501497 4.15897 0.240784 3.68239 0.622053 3.26934C1.03509 2.8563 1.52757 2.64978 2.09947 2.64978H3.1003V0.648122H5.14962V2.64978H13.2516V0.648122H15.3009V2.64978H16.3017ZM14.3001 9.79857V11.8002H12.2507V9.79857H14.3001ZM10.2014 9.79857V11.8002H8.19977V9.79857H10.2014ZM6.15045 9.79857V11.8002H4.10113V9.79857H6.15045Z" fill="#F3F3F3"/>
</svg>
