<svg width="47" height="47" viewBox="0 0 47 47" fill="none" xmlns="http://www.w3.org/2000/svg">
<path d="M24.6353 18.792V32H22.3647V18.792H24.6353ZM22.1938 15.2886C22.1938 14.9224 22.3037 14.6131 22.5234 14.3608C22.7513 14.1086 23.085 13.9824 23.5244 13.9824C23.9557 13.9824 24.2853 14.1086 24.5132 14.3608C24.7492 14.6131 24.8672 14.9224 24.8672 15.2886C24.8672 15.6385 24.7492 15.9396 24.5132 16.1919C24.2853 16.436 23.9557 16.5581 23.5244 16.5581C23.085 16.5581 22.7513 16.436 22.5234 16.1919C22.3037 15.9396 22.1938 15.6385 22.1938 15.2886Z" fill="#69885E"/>
<path d="M23.5 46C11.0736 46 1 35.9264 1 23.5H-1C-1 37.031 9.96902 48 23.5 48V46ZM46 23.5C46 35.9264 35.9264 46 23.5 46V48C37.031 48 48 37.031 48 23.5H46ZM23.5 1C35.9264 1 46 11.0736 46 23.5H48C48 9.96902 37.031 -1 23.5 -1V1ZM23.5 -1C9.96902 -1 -1 9.96902 -1 23.5H1C1 11.0736 11.0736 1 23.5 1V-1Z" fill="#69885E"/>
</svg>
