<svg width="27" height="27" viewBox="0 0 27 27" fill="none" xmlns="http://www.w3.org/2000/svg">
<path d="M22.0021 4.05396C25.0716 6.67201 26.6063 9.96715 26.6063 13.9394C26.6063 17.5505 25.3424 20.6199 22.8146 23.1477C20.2868 25.6755 17.2174 26.9394 13.6063 26.9394C9.99517 26.9394 6.92573 25.6755 4.39795 23.1477C1.87017 20.6199 0.606284 17.5505 0.606284 13.9394C0.606284 12.3144 1.05767 10.5314 1.96045 8.59042C2.86323 6.64944 3.94656 5.13729 5.21045 4.05396L7.2417 6.08521C6.20351 6.94285 5.3233 8.13903 4.60108 9.67375C3.87885 11.2085 3.51774 12.6303 3.51774 13.9394C3.51774 16.738 4.48823 19.1303 6.4292 21.1165C8.41531 23.0574 10.8077 24.0279 13.6063 24.0279C16.4049 24.0279 18.7747 23.0574 20.7157 21.1165C22.7018 19.1303 23.6948 16.738 23.6948 13.9394C23.6948 12.6303 23.3337 11.2085 22.6115 9.67375C21.8893 8.13903 21.0091 6.96542 19.9709 6.15292L22.0021 4.05396ZM15.0282 0.939374V15.3612H12.1844V0.939374H15.0282Z" fill="#888888"/>
</svg>
