<svg width="22" height="26" viewBox="0 0 22 26" fill="none" xmlns="http://www.w3.org/2000/svg">
<path d="M7.85714 19.6429C7.85714 20.075 7.50357 20.4286 7.07143 20.4286C6.63929 20.4286 6.28571 20.075 6.28571 19.6429V9.42857C6.28571 8.99643 6.63929 8.64286 7.07143 8.64286C7.50357 8.64286 7.85714 8.99643 7.85714 9.42857V19.6429ZM11.7857 19.6429C11.7857 20.075 11.4321 20.4286 11 20.4286C10.5679 20.4286 10.2143 20.075 10.2143 19.6429V9.42857C10.2143 8.99643 10.5679 8.64286 11 8.64286C11.4321 8.64286 11.7857 8.99643 11.7857 9.42857V19.6429ZM15.7143 19.6429C15.7143 20.075 15.3607 20.4286 14.9286 20.4286C14.4964 20.4286 14.1429 20.075 14.1429 19.6429V9.42857C14.1429 8.99643 14.4964 8.64286 14.9286 8.64286C15.3607 8.64286 15.7143 8.99643 15.7143 9.42857V19.6429ZM15.5915 1.22473L17.3938 3.92857H20.8214C21.4746 3.92857 22 4.45647 22 5.10714C22 5.76027 21.4746 6.28571 20.8214 6.28571H20.4286V21.2143C20.4286 23.3848 18.6705 25.1429 16.5 25.1429H5.5C3.33045 25.1429 1.57143 23.3848 1.57143 21.2143V6.28571H1.17857C0.527902 6.28571 0 5.76027 0 5.10714C0 4.45647 0.527902 3.92857 1.17857 3.92857H4.60723L6.40848 1.22473C6.9192 0.459496 7.77857 0 8.69688 0L13.3031 0C14.2214 0 15.0808 0.459545 15.5915 1.22473V1.22473ZM7.43973 3.92857H14.5603L13.6272 2.53196C13.5536 2.42295 13.4308 2.35714 13.3031 2.35714H8.69688C8.5692 2.35714 8.40223 2.42295 8.37277 2.53196L7.43973 3.92857ZM3.92857 21.2143C3.92857 22.0835 4.63228 22.7857 5.5 22.7857H16.5C17.3692 22.7857 18.0714 22.0835 18.0714 21.2143V6.28571H3.92857V21.2143Z" fill="#F24E1E"/>
</svg>
