<svg width="33" height="33" viewBox="0 0 33 33" fill="none" xmlns="http://www.w3.org/2000/svg">
<path d="M6.46973 18.5244C8.05566 20.1104 9.98145 20.9033 12.2471 20.9033C14.5127 20.9033 16.4385 20.1104 18.0244 18.5244C19.6104 16.9385 20.4033 15.0127 20.4033 12.7471C20.4033 10.4814 19.6104 8.55566 18.0244 6.96973C16.4385 5.38379 14.5127 4.59082 12.2471 4.59082C9.98145 4.59082 8.05566 5.38379 6.46973 6.96973C4.88379 8.55566 4.09082 10.4814 4.09082 12.7471C4.09082 15.0127 4.88379 16.9385 6.46973 18.5244ZM23.1221 20.9033L32.1279 29.9092L29.4092 32.6279L20.4033 23.6221V22.1777L19.8936 21.668C17.7412 23.5371 15.1924 24.4717 12.2471 24.4717C8.96191 24.4717 6.1582 23.3389 3.83594 21.0732C1.57031 18.8076 0.4375 16.0322 0.4375 12.7471C0.4375 9.46191 1.57031 6.68652 3.83594 4.4209C6.1582 2.09863 8.96191 0.9375 12.2471 0.9375C15.5322 0.9375 18.3076 2.09863 20.5732 4.4209C22.8389 6.68652 23.9717 9.46191 23.9717 12.7471C23.9717 13.9365 23.6885 15.2959 23.1221 16.8252C22.5557 18.2979 21.9043 19.4873 21.168 20.3936L21.6777 20.9033H23.1221Z" fill="#6F6F6F"/>
</svg>
